<?xml version="1.0" encoding="utf-8"?>
<svg xmlns="http://www.w3.org/2000/svg" viewBox="0 0 600 90">
	<path style="fill:#2845AE;" d="M149.4,11.2v15.7h-18v44.2h-17V26.9h-18V11.2H149.4z"/>
	<path style="fill:#2845AE;" d="M186.2,54.9l7.7,7.4c-3.1,3.6-6.3,6.2-9.6,7.6c-3.4,1.4-7.1,2.1-11.2,2.1c-7.2,0-13-2.1-17.4-6.4
		c-4.5-4.3-6.7-9.9-6.7-16.9c0-6.8,2-12.5,6.2-17.1c4.1-4.6,9.7-6.9,16.8-6.9c7.4,0,13.1,2.6,17.3,7.9c4.1,5.3,5.7,11.9,4.6,20
		h-29.5c0.9,5.2,4.4,7.8,10.6,7.8C179.2,60.3,183,58.5,186.2,54.9z M164,43.4h16.1c-0.7-5-3.2-7.1-7.9-7.2
		C168,36,164.7,38.5,164,43.4z"/>
	<path style="fill:#2845AE;" d="M236.1,26.6l-10,16.3c-1-0.8-2.1-1.2-3.5-1.2c-4.8,0-7,2.6-7.5,8.7v20.7h-16.9V25.8h16.9v6.6
		c3.3-5.2,7.8-7.7,13.6-7.5C231.6,25,234.1,25.5,236.1,26.6z"/>
	<path style="fill:#2845AE;" d="M275.3,26.6l-10,16.3c-1-0.8-2.1-1.2-3.5-1.2c-4.8,0-7,2.6-7.5,8.7v20.7h-16.9V25.8h16.9v6.6
		c3.3-5.2,7.8-7.7,13.6-7.5C270.7,25,273.2,25.5,275.3,26.6z"/>
	<path style="fill:#2845AE;" d="M312.1,30.6c2.8,4,4.3,10.4,4.3,19.3v21.2h-16v-4.7c-3.2,3.9-7.4,5.8-12.5,5.8
		c-4.5,0-8.3-1.5-11.4-4.3c-3.1-2.9-4.7-6.4-4.7-10.6c0-4.9,2.6-8.9,6.3-10.9s7.6-3.1,11.4-3.1c4.2,0,7.8,0.9,10.8,2.7
		c-0.3-6.3-2-9.5-6.8-9.5c-1.8,0-3.9,0.4-6.3,1.3c-2.4,0.9-4.3,1.9-5.8,3.1l-6.3-9.6c6.6-4.5,13.7-6.7,21.4-6.7
		C304,24.7,309.2,26.6,312.1,30.6z M300.3,53.8c-1.6-1.1-3.7-1.6-6.2-1.6c-4.6,0-6.9,1.8-6.9,4.1c0,2.5,2.3,4.8,5.8,4.8
		c1.8,0,3.4-0.5,5-1.4c1.5-0.9,2.3-2,2.3-3.4V53.8z"/>
		<path style="fill:#2845AD;" d="M76.5,57.6c-8.6,0-25.2-6-31.1-8.2c-5.6,3.8-9.4,8.7-7.9,14.8c2.2,8.4,10,14.8,13.9,14.5
			c0,0,1.8-0.3,4.4-1.3c-0.5-0.6-0.8-1.5-0.4-2.7c1.6-5.3,12.6-10.7,19.1-12.9c0-0.1,0.1-0.1,0.1-0.2C75.3,60.3,76,58.9,76.5,57.6z"
			/>
		<path style="fill:#5096F8;" d="M20.8,49.8c-0.8-1.3-4.6-7.5-7.4-11.3c-2.9-4-6.4-7.6-9.3-11.5c-0.2,0.4-0.3,0.8-0.4,1.2
			c-0.7,2.1-1.2,4.2-1.6,6.3c-0.4,2.2-0.5,4.4-0.5,6.7c0,2.3,0.2,4.5,0.5,6.7c0.4,2.2,0.9,4.3,1.6,6.3c0.7,2.1,1.5,4,2.5,5.9
			c1,1.9,2.1,3.7,3.4,5.4c1.3,1.7,2.6,3.3,4.1,4.8c1.5,1.5,3.1,2.9,4.8,4.1c1.3,0.9,2.6,1.8,3.9,2.6c2.6,1.5,3.5,1.4,3.9,1.4
			c0.5-0.8,0.9-10.5,0.5-12.9C26.4,63.1,25.6,58,20.8,49.8z"/>
		<path style="fill:#2845AD;" d="M61.5,8.1c1.4,0,5.8,0.1,8.4,2.1c0.7,0.6,1.4,1.3,2,1.9c-0.5-0.6-1.1-1.2-1.7-1.7v0
			c-7-5.9-16-9.5-25.9-9.5c-5.7,0-11.1,1.2-16,3.3c6.4,0.6,2.7,6.2,2.7,6.3c-2.4,3.6-7.4,6.7-12.4,8.9c1.2,2.2,3.3,4.3,6.2,6.1
			C29.7,15.3,51.2,8.4,61.5,8.1z"/>
		<path style="fill:#5096F8;" d="M31,10.6c0-0.1,3.7-5.7-2.7-6.3c-0.3,0-0.6,0-0.9-0.1c-0.8,0-3.3,0.1-5.7,1.5
			c-1.1,0.7-2.2,1.4-3.3,2.2c-1.7,1.3-3.3,2.6-4.8,4.1c-1.5,1.5-2.9,3.1-4.1,4.8c-1.2,1.7-2.4,3.5-3.4,5.4C6,22.5,5.9,22.7,5.8,23
			c0,0,0,0,0,0c1.5,0.5,7.1-0.9,12.8-3.4C23.6,17.4,28.6,14.3,31,10.6z"/>
		<path style="fill:#5096F8;" d="M81.1,56.4C83,51.7,84,46.6,84,41.2c0-11.4-4.6-21.6-12.1-29.1c-0.7-0.7-1.3-1.3-2-1.9
			c-2.6-2.1-7-2.1-8.4-2.1c-10.3,0.3-31.8,7.2-36.7,17.6c-0.8,1.8-1.2,3.6-0.9,5.6c1.2,9.4,14.9,15.3,19.3,17.3c0,0,0.8,0.3,2.1,0.8
			c5.9,2.2,22.6,8.1,31.1,8.2C78.6,57.6,80.3,57.2,81.1,56.4z"/>
		<path style="fill:#5096F8;" d="M55.3,74.7c-0.3,1.1-0.1,2,0.4,2.7c1.1,1.3,3.7,1.5,6.1,0.4c7.1-3.7,12.9-9.4,16.8-16.3
			c0.2-0.4,0-0.7-0.5-0.6c-0.8,0.1-2.1,0.4-3.8,1C68,64.1,56.9,69.5,55.3,74.7z"/>
	<path style="fill:#2845AE;" d="M344.5,67.4h35.8v4.9h-40.6V12.4h4.8V67.4z"/>
	<path style="fill:#2845AE;" d="M388.8,66.8c-4.1-4.1-6.1-9.7-6.1-16.6c0-6.9,2-12.4,6-16.6c4-4.1,9.1-6.2,15.4-6.2
		c6.3,0,11.4,2.1,15.5,6.2c4.1,4.2,6.1,9.7,6.1,16.5c0,6.9-2,12.4-6.1,16.6c-4.1,4.2-9.2,6.3-15.5,6.3
		C397.9,73.1,392.9,71,388.8,66.8z M416.1,63.7c3.1-3.3,4.7-7.9,4.7-13.6c0-5.7-1.5-10.1-4.6-13.4c-3.1-3.3-7.1-4.9-12-4.9
		c-4.8,0-8.8,1.6-11.9,4.9c-3.1,3.3-4.6,7.8-4.6,13.5c0,5.8,1.5,10.4,4.7,13.6c3.1,3.3,7.1,4.9,11.9,4.9
		C408.9,68.7,412.9,67.1,416.1,63.7z"/>
	<path style="fill:#2845AE;" d="M454.9,71.3c-2.5,1.4-5.2,2-8.3,1.9c-7.9-0.2-12.7-4.1-12.7-12.3V33.5h-8.1v-4h8.1V17.6h4.8v11.9
		h15.5v4h-15.5v27.8c0,2.5,0.9,4.5,2.8,5.8c1.8,1.4,4,2.1,6.4,2.1c1.9,0,3.8-0.4,5.6-1.3L454.9,71.3z"/>
	<path style="fill:#2845AE;" d="M483.2,71.3c-2.5,1.4-5.2,2-8.3,1.9c-7.9-0.2-12.7-4.1-12.7-12.3V33.5h-8.1v-4h8.1V17.6h4.8v11.9
		h15.5v4h-15.5v27.8c0,2.5,0.9,4.5,2.8,5.8c1.8,1.4,4,2.1,6.4,2.1c1.9,0,3.8-0.4,5.6-1.3L483.2,71.3z"/>
	<path style="fill:#2845AE;" d="M520.9,34c3.7,4.2,5.6,10.3,5.5,18.1h-36.7c0.3,5.4,1.9,9.5,4.9,12.4c3,2.9,7,4.3,12,4.3
		c3.3,0,6.3-0.7,9.1-2c2.7-1.3,4.8-3.3,6.1-6l3.4,2.1c-2,3.6-4.8,6.3-8.3,8c-3.5,1.8-7.4,2.6-11.7,2.4c-6.1-0.2-11.1-2.3-14.9-6.3
		c-3.8-4-5.6-9.5-5.6-16.5c0-7.1,1.9-12.7,5.8-16.8c3.9-4.1,8.9-6.1,15.2-6.1C512,27.7,517.1,29.8,520.9,34z M505.7,32.5
		c-4.5,0-8.1,1.3-10.9,3.8c-2.9,2.5-4.6,6.3-5,11.1h31.7c-0.5-4.8-2.2-8.6-4.9-11.1C513.7,33.8,510.1,32.5,505.7,32.5z"/>
	<path style="fill:#2845AE;" d="M556.6,28.3L554,33c-1.3-0.5-2.6-0.7-4.2-0.7c-6.9,0-11.1,3.6-12.6,10.7v29.2h-4.8V28.8h4.8v7.4
		c3-6,7.7-8.9,14.1-8.7C553.5,27.6,555.2,27.8,556.6,28.3z"/>
	<path style="fill:#2845AE;" d="M593.2,28.8h5.3l-18.4,45.8c-3.7,9.5-10.2,14.7-18,15.2c-3.7,0-7.1-0.8-10.4-2.3l1.9-4.1
		c4.6,2.3,8.9,2.5,12.9,0.7c4-1.9,7.1-5.6,9.3-11.2l0.4-1.2L556,28.8h5.4l17.3,36.8L593.2,28.8z"/>
</svg>
