<svg xmlns="http://www.w3.org/2000/svg" viewBox="0 0 100 100">
    <style>
    .light { fill: #5096F8; }
      .dark { fill: #2845AD; }

    @media (prefers-color-scheme: dark) {
    .light { fill: #FFFFFF; }
      .dark { fill: #f8f9fe; }
    }
  </style>
	<path class="dark" d="M81.5,66.4c-7.9,0-23.4-5.5-28.8-7.6c-5.2,3.5-8.7,8.1-7.3,13.7c2,7.8,9.3,13.7,12.9,13.5
		c0,0,1.6-0.3,4-1.2c-0.5-0.6-0.7-1.4-0.4-2.5c1.4-4.9,11.7-9.9,17.6-11.9c0-0.1,0.1-0.1,0.1-0.1C80.4,68.9,81,67.7,81.5,66.4z"/>
	<path class="dark" d="M67.6,20.5c1.3,0,5.4,0.1,7.8,2c0.7,0.6,1.3,1.2,1.9,1.8c-0.5-0.6-1-1.1-1.6-1.5v0
		c-6.5-5.5-14.9-8.8-24-8.8c-5.3,0-10.3,1.1-14.8,3.1c5.9,0.6,2.5,5.8,2.5,5.8c-2.2,3.3-6.9,6.2-11.5,8.3c1.1,2,3.1,3.9,5.7,5.7
		C38.2,27.2,58.1,20.8,67.6,20.5z"/>
	<path class="light" d="M36.8,17.1c-0.3,0-0.5,0-0.9-0.1c-0.8,0-3,0.1-5.3,1.4c-1,0.6-2.1,1.3-3,2c-1.6,1.2-3.1,2.4-4.4,3.8
		s-2.7,2.9-3.8,4.4c-1.2,1.6-2.2,3.3-3.1,5c-0.1,0.2-0.2,0.4-0.3,0.6c0,0,0,0,0,0c1.4,0.4,6.6-0.8,11.9-3.2
		c4.6-2.1,9.3-4.9,11.5-8.3C39.4,22.9,42.8,17.7,36.8,17.1z"/>
	<path class="light" d="M29.9,59.2c-0.7-1.2-4.3-7-6.8-10.5c-2.7-3.7-5.9-7-8.6-10.7c-0.1,0.4-0.3,0.8-0.4,1.1
		c-0.6,1.9-1.1,3.9-1.4,5.9c-0.3,2-0.5,4.1-0.5,6.2c0,2.1,0.2,4.2,0.5,6.2c0.3,2,0.8,4,1.4,5.9c0.6,1.9,1.4,3.7,2.3,5.5
		s1.9,3.4,3.1,5c1.2,1.6,2.4,3.1,3.8,4.4c1.4,1.4,2.9,2.7,4.4,3.8c1.2,0.9,2.4,1.7,3.7,2.4c2.4,1.4,3.2,1.3,3.6,1.3
		c0.5-0.8,0.8-9.7,0.5-11.9C35.1,71.5,34.4,66.8,29.9,59.2z"/>
	<path class="light" d="M77.2,24.3c-0.6-0.6-1.2-1.2-1.9-1.8c-2.4-1.9-6.4-2-7.8-2c-9.5,0.3-29.4,6.7-34,16.3
		c-0.8,1.6-1.1,3.4-0.9,5.2c1.1,8.7,13.8,14.2,17.9,16c0,0,0.8,0.3,2,0.8c5.5,2.1,20.9,7.5,28.8,7.6c2,0,3.5-0.3,4.3-1.1
		c1.7-4.3,2.7-9.1,2.7-14C88.4,40.7,84.1,31.2,77.2,24.3z"/>
	<path class="light" d="M83.1,69.4c-0.7,0.1-2,0.4-3.5,0.9c-5.9,2-16.2,7-17.6,11.9c-0.3,1.1-0.1,1.9,0.4,2.5
		c1,1.2,3.4,1.4,5.6,0.3c6.5-3.4,11.9-8.7,15.6-15.1C83.7,69.7,83.5,69.4,83.1,69.4z"/>
</svg>
